<svg width="70" height="25" viewBox="0 0 70 25" fill="none" xmlns="http://www.w3.org/2000/svg">
<g filter="url(#filter0_d_10_407)">
<path d="M12.25 7.01562L12.8125 7.23438C12.25 8.10938 11.8906 8.78125 11.7344 9.25C11.5885 9.70833 11.5156 10.3333 11.5156 11.125V17.7812C11.5156 18.8854 11.599 19.5781 11.7656 19.8594C11.9427 20.1302 12.151 20.2656 12.3906 20.2656C12.5156 20.2656 12.6458 20.2344 12.7812 20.1719C12.8646 20.1198 13.1094 19.9323 13.5156 19.6094L13.8594 20.125L10.375 23C9.57292 22.375 9.03646 21.8177 8.76562 21.3281C8.49479 20.8281 8.34375 20.1354 8.3125 19.25L3.5625 23C1.78125 21.5417 0.890625 20.1042 0.890625 18.6875C0.890625 17.7396 1.08333 16.849 1.46875 16.0156C1.97917 14.9219 2.85938 13.6458 4.10938 12.1875L2.23438 8.1875L2.45312 7.75C2.85938 7.79167 3.16146 7.8125 3.35938 7.8125C4.58854 7.8125 5.67188 7.32292 6.60938 6.34375C7.36979 6.79167 8.19792 7.15104 9.09375 7.42188C10 7.69271 10.6927 7.82812 11.1719 7.82812C11.3906 7.82812 11.5573 7.79167 11.6719 7.71875C11.7865 7.63542 11.9792 7.40104 12.25 7.01562ZM8.3125 10L2.96875 8.35938L4.875 12.3906L8.3125 14V10ZM8.3125 14.6406L4.53125 12.875C3.94792 14.1458 3.65625 15.2604 3.65625 16.2188C3.65625 17.9062 4.42188 19.2969 5.95312 20.3906L8.3125 18.4844V14.6406ZM21.6562 0.609375L21.7812 1.01562C20.9792 1.49479 20.4479 1.96875 20.1875 2.4375C19.9375 2.89583 19.8125 3.65104 19.8125 4.70312V10.2031L24.7812 6.34375C25.7083 6.97917 26.3333 7.60417 26.6562 8.21875C26.9792 8.82292 27.1406 9.65625 27.1406 10.7188V20.1406C25.8594 20.6406 24.7969 21.1354 23.9531 21.625C23.3073 22.0104 22.6927 22.4688 22.1094 23C21.224 22.2708 20.3385 21.7083 19.4531 21.3125C18.5781 20.9167 17.276 20.526 15.5469 20.1406V19.8594C15.9948 19.5469 16.276 19.1823 16.3906 18.7656C16.5677 18.151 16.6562 16.7292 16.6562 14.5V5.45312C16.6562 4.27604 16.5365 3.42708 16.2969 2.90625C16.0573 2.375 15.6042 1.88021 14.9375 1.42188L15.2188 1.01562C16.0104 1.35938 16.5521 1.625 16.8438 1.8125C17.1354 1.98958 17.4167 2.22396 17.6875 2.51562C18.7604 1.74479 19.5208 1.26042 19.9688 1.0625C20.4167 0.854167 20.9792 0.703125 21.6562 0.609375ZM19.8125 18.7031L23.9062 20.3125V11.5156C23.9062 10.7031 23.8281 10.1458 23.6719 9.84375C23.526 9.53125 23.1667 9.18229 22.5938 8.79688L19.8125 10.9375V18.7031ZM41.0938 8.625V20.3125C39.5312 20.9479 38.401 21.4688 37.7031 21.875C37.1719 22.1771 36.6615 22.5521 36.1719 23C34.6615 22.0833 33.4115 21.4479 32.4219 21.0938C31.6719 20.8229 30.8229 20.6667 29.875 20.625L29.7188 20.3125C30.1146 19.9792 30.3646 19.6771 30.4688 19.4062C30.6146 19.0521 30.6875 18.4531 30.6875 17.6094V9.03125C32.5938 8.39583 34.224 7.5 35.5781 6.34375C37.0573 7.32292 38.8958 8.08333 41.0938 8.625ZM33.8438 18.7969L37.9219 20.4688V10.5312C36.6406 9.9375 35.7344 9.54688 35.2031 9.35938C34.8281 9.22396 34.375 9.10938 33.8438 9.01562V18.7969ZM54.9531 6.34375L57.75 8.65625L56.4844 9.8125V18.0156C56.4844 18.9635 56.6146 19.6406 56.875 20.0469C57.0417 20.3281 57.224 20.4688 57.4219 20.4688C57.5677 20.4688 57.849 20.2969 58.2656 19.9531L58.6719 20.4531L55.375 23C54.5417 22.4167 53.9948 21.8958 53.7344 21.4375C53.4844 20.9688 53.349 20.2292 53.3281 19.2188C51.7135 20.2604 50.0677 21.5208 48.3906 23C47.3802 22.2083 46.7188 21.5156 46.4062 20.9219C46.0938 20.3177 45.9375 19.526 45.9375 18.5469V10.8281C45.9375 10.2865 45.8958 9.93229 45.8125 9.76562C45.6667 9.47396 45.4688 9.32812 45.2188 9.32812C45.0312 9.32812 44.75 9.48958 44.375 9.8125L43.9531 9.375L47.4219 6.34375L50.25 8.65625L49.0938 9.71875V18.0156C49.0938 18.6302 49.1719 19.0833 49.3281 19.375C49.4844 19.6562 49.8646 20.0156 50.4688 20.4531L53.3281 18.3438V9.8125L52.2188 8.65625L54.9531 6.34375ZM60.0156 8.0625L64.375 2.67188H64.8281L64.6719 6.98438H67.8125V8.75H64.6719V19.2656L66.4219 20.5625L67.4219 19.7812L67.8125 20.25L64.375 23C63.1979 21.8021 61.8646 20.9896 60.375 20.5625V20.25C60.7917 19.9688 61.0677 19.6771 61.2031 19.375C61.3802 18.9896 61.4688 18.4323 61.4688 17.7031V8.75H60.0156V8.0625Z" fill="black"/>
</g>
<defs>
<filter id="filter0_d_10_407" x="0.890625" y="0.609375" width="68.9219" height="24.3906" filterUnits="userSpaceOnUse" color-interpolation-filters="sRGB">
<feFlood flood-opacity="0" result="BackgroundImageFix"/>
<feColorMatrix in="SourceAlpha" type="matrix" values="0 0 0 0 0 0 0 0 0 0 0 0 0 0 0 0 0 0 127 0" result="hardAlpha"/>
<feOffset dx="2" dy="2"/>
<feComposite in2="hardAlpha" operator="out"/>
<feColorMatrix type="matrix" values="0 0 0 0 0.338677 0 0 0 0 0.0960938 0 0 0 0 0.854167 0 0 0 0.7 0"/>
<feBlend mode="normal" in2="BackgroundImageFix" result="effect1_dropShadow_10_407"/>
<feBlend mode="normal" in="SourceGraphic" in2="effect1_dropShadow_10_407" result="shape"/>
</filter>
</defs>
</svg>
