<svg width="99" height="23" viewBox="0 0 99 23" fill="none" xmlns="http://www.w3.org/2000/svg">
<g filter="url(#filter0_d_10_672)">
<path d="M5.15625 4.34375L9.21875 6.65625L7.5625 9.10938L4.5 7.34375V17.2969L7.5625 18.6875L9.21875 17.5156L9.375 18.1719L5.5 21C4.5 20.4375 3.64583 20.026 2.9375 19.7656C2.22917 19.4948 1.35938 19.2604 0.328125 19.0625V18.6875C0.692708 18.4375 0.932292 18.1667 1.04688 17.875C1.21354 17.4688 1.29688 16.8333 1.29688 15.9688V7.07812C2.59896 6.48438 3.88542 5.57292 5.15625 4.34375ZM22.0625 6.625V18.3125C20.5 18.9479 19.3698 19.4688 18.6719 19.875C18.1406 20.1771 17.6302 20.5521 17.1406 21C15.6302 20.0833 14.3802 19.4479 13.3906 19.0938C12.6406 18.8229 11.7917 18.6667 10.8438 18.625L10.6875 18.3125C11.0833 17.9792 11.3333 17.6771 11.4375 17.4062C11.5833 17.0521 11.6562 16.4531 11.6562 15.6094V7.03125C13.5625 6.39583 15.1927 5.5 16.5469 4.34375C18.026 5.32292 19.8646 6.08333 22.0625 6.625ZM14.8125 16.7969L18.8906 18.4688V8.53125C17.6094 7.9375 16.7031 7.54688 16.1719 7.35938C15.7969 7.22396 15.3438 7.10938 14.8125 7.01562V16.7969ZM34.6562 4.34375L37.2188 6.73438L38.7344 5.26562L39.1719 5.6875C38.4427 6.35417 38 6.85938 37.8438 7.20312C37.6354 7.66146 37.5312 8.29167 37.5312 9.09375V16.5156C37.5312 17.2031 37.6406 17.7135 37.8594 18.0469C37.9948 18.2656 38.1458 18.375 38.3125 18.375C38.4583 18.375 38.8021 18.1719 39.3438 17.7656L39.7188 18.25L36.3594 21C35.4948 20.3438 34.9375 19.7656 34.6875 19.2656C34.4479 18.7552 34.3281 17.9375 34.3281 16.8125V8.20312L32.625 6.73438L30.0938 8.75V17.6406L31.2188 18.7656L28.4531 21L25.6719 18.7656L26.8906 17.6406V9.65625C26.8906 8.52083 26.776 7.75521 26.5469 7.35938C26.3906 7.08854 26.2135 6.95312 26.0156 6.95312C25.8073 6.95312 25.4948 7.11458 25.0781 7.4375L24.7031 7L28.0312 4.34375C28.9479 4.98958 29.5208 5.5 29.75 5.875C29.9792 6.25 30.0938 6.77083 30.0938 7.4375V7.96875L34.6562 4.34375ZM40.9844 6.0625L45.3438 0.671875H45.7969L45.6406 4.98438H48.7812V6.75H45.6406V17.2656L47.3906 18.5625L48.3906 17.7812L48.7812 18.25L45.3438 21C44.1667 19.8021 42.8333 18.9896 41.3438 18.5625V18.25C41.7604 17.9688 42.0365 17.6771 42.1719 17.375C42.349 16.9896 42.4375 16.4323 42.4375 15.7031V6.75H40.9844V6.0625ZM61.5625 5.01562L62.125 5.23438C61.5625 6.10938 61.2031 6.78125 61.0469 7.25C60.901 7.70833 60.8281 8.33333 60.8281 9.125V15.7812C60.8281 16.8854 60.9115 17.5781 61.0781 17.8594C61.2552 18.1302 61.4635 18.2656 61.7031 18.2656C61.8281 18.2656 61.9583 18.2344 62.0938 18.1719C62.1771 18.1198 62.4219 17.9323 62.8281 17.6094L63.1719 18.125L59.6875 21C58.8854 20.375 58.349 19.8177 58.0781 19.3281C57.8073 18.8281 57.6562 18.1354 57.625 17.25L52.875 21C51.0938 19.5417 50.2031 18.1042 50.2031 16.6875C50.2031 15.7396 50.3958 14.849 50.7812 14.0156C51.2917 12.9219 52.1719 11.6458 53.4219 10.1875L51.5469 6.1875L51.7656 5.75C52.1719 5.79167 52.474 5.8125 52.6719 5.8125C53.901 5.8125 54.9844 5.32292 55.9219 4.34375C56.6823 4.79167 57.5104 5.15104 58.4062 5.42188C59.3125 5.69271 60.0052 5.82812 60.4844 5.82812C60.7031 5.82812 60.8698 5.79167 60.9844 5.71875C61.099 5.63542 61.2917 5.40104 61.5625 5.01562ZM57.625 8L52.2812 6.35938L54.1875 10.3906L57.625 12V8ZM57.625 12.6406L53.8438 10.875C53.2604 12.1458 52.9688 13.2604 52.9688 14.2188C52.9688 15.9062 53.7344 17.2969 55.2656 18.3906L57.625 16.4844V12.6406ZM69.8125 4.34375L73.875 6.65625L72.2188 9.10938L69.1562 7.34375V17.2969L72.2188 18.6875L73.875 17.5156L74.0312 18.1719L70.1562 21C69.1562 20.4375 68.3021 20.026 67.5938 19.7656C66.8854 19.4948 66.0156 19.2604 64.9844 19.0625V18.6875C65.349 18.4375 65.5885 18.1667 65.7031 17.875C65.8698 17.4688 65.9531 16.8333 65.9531 15.9688V7.07812C67.2552 6.48438 68.5417 5.57292 69.8125 4.34375ZM74.9844 6.0625L79.3438 0.671875H79.7969L79.6406 4.98438H82.7812V6.75H79.6406V17.2656L81.3906 18.5625L82.3906 17.7812L82.7812 18.25L79.3438 21C78.1667 19.8021 76.8333 18.9896 75.3438 18.5625V18.25C75.7604 17.9688 76.0365 17.6771 76.1719 17.375C76.349 16.9896 76.4375 16.4323 76.4375 15.7031V6.75H74.9844V6.0625ZM92.5156 10.1406L96.125 12.0312V18.6094C95.25 18.6927 94.4583 18.9062 93.75 19.25C93.0417 19.5938 92.2396 20.1771 91.3438 21C90.5729 20.5417 89.901 20.224 89.3281 20.0469C88.7656 19.8698 88.1667 19.7812 87.5312 19.7812C86.5521 19.7812 85.6823 20.0781 84.9219 20.6719C84.6406 20.8906 84.4375 21 84.3125 21C84.1979 21 84.0833 20.9427 83.9688 20.8281C83.8542 20.7135 83.7969 20.599 83.7969 20.4844C83.7969 20.3594 83.9062 20.1927 84.125 19.9844C84.25 19.8594 84.4635 19.6198 84.7656 19.2656L86.1875 17.5L88.2031 14.8281L84.7812 12.9844V7.15625C85.8542 6.82292 86.6927 6.45312 87.2969 6.04688C87.9115 5.63021 88.5 5.0625 89.0625 4.34375C90.3958 4.90625 91.4688 5.30208 92.2812 5.53125C92.8646 5.6875 93.4219 5.76562 93.9531 5.76562C94.5365 5.76562 94.9896 5.64062 95.3125 5.39062C95.6354 5.13021 95.7969 4.85938 95.7969 4.57812C95.7969 4.39062 95.6927 4.20312 95.4844 4.01562C95.0781 3.65104 94.875 3.29688 94.875 2.95312C94.875 2.63021 94.9635 2.375 95.1406 2.1875C95.3177 1.98958 95.5156 1.89062 95.7344 1.89062C96.026 1.89062 96.2865 2.02604 96.5156 2.29688C96.7552 2.55729 96.875 2.90625 96.875 3.34375C96.875 3.79167 96.7812 4.22917 96.5938 4.65625C96.4062 5.08333 96.0469 5.63542 95.5156 6.3125L92.5156 10.1406ZM87.9375 11.2188L90.0781 12.3281L93.4844 7.79688C92.7865 7.99479 92.1823 8.09375 91.6719 8.09375C90.3906 8.09375 89.1458 7.66667 87.9375 6.8125V11.2188ZM90.625 12.6406L86.8594 17.6875C87.3177 17.5312 87.7448 17.4167 88.1406 17.3438C88.5365 17.2708 88.8958 17.2344 89.2188 17.2344C90.4167 17.2344 91.6615 17.6302 92.9531 18.4219V13.8906L90.625 12.6406Z" fill="black"/>
</g>
<defs>
<filter id="filter0_d_10_672" x="0.328125" y="0.671875" width="98.5469" height="22.3281" filterUnits="userSpaceOnUse" color-interpolation-filters="sRGB">
<feFlood flood-opacity="0" result="BackgroundImageFix"/>
<feColorMatrix in="SourceAlpha" type="matrix" values="0 0 0 0 0 0 0 0 0 0 0 0 0 0 0 0 0 0 127 0" result="hardAlpha"/>
<feOffset dx="2" dy="2"/>
<feComposite in2="hardAlpha" operator="out"/>
<feColorMatrix type="matrix" values="0 0 0 0 0.338677 0 0 0 0 0.0960938 0 0 0 0 0.854167 0 0 0 0.7 0"/>
<feBlend mode="normal" in2="BackgroundImageFix" result="effect1_dropShadow_10_672"/>
<feBlend mode="normal" in="SourceGraphic" in2="effect1_dropShadow_10_672" result="shape"/>
</filter>
</defs>
</svg>
