<svg width="123" height="26" viewBox="0 0 123 26" fill="none" xmlns="http://www.w3.org/2000/svg">
<g filter="url(#filter0_d_10_466)">
<path d="M4.23438 2H6.21875L4.0625 5.375H3.4375L4.23438 2ZM3.04688 7.34375L5.82812 9.64062L4.59375 10.8438V19.3438C4.59375 20.2396 4.67708 20.8229 4.84375 21.0938C5.01042 21.3646 5.18229 21.5 5.35938 21.5C5.48438 21.5 5.59896 21.474 5.70312 21.4219C5.84896 21.349 6.15104 21.1406 6.60938 20.7969L6.98438 21.2812L3.4375 24C2.60417 23.4062 2.06771 22.849 1.82812 22.3281C1.58854 21.7969 1.46875 20.875 1.46875 19.5625V10.8438L0.296875 9.64062L3.04688 7.34375ZM18.6562 7.34375L21.2188 9.73438L22.7344 8.26562L23.1719 8.6875C22.4427 9.35417 22 9.85938 21.8438 10.2031C21.6354 10.6615 21.5312 11.2917 21.5312 12.0938V19.5156C21.5312 20.2031 21.6406 20.7135 21.8594 21.0469C21.9948 21.2656 22.1458 21.375 22.3125 21.375C22.4583 21.375 22.8021 21.1719 23.3438 20.7656L23.7188 21.25L20.3594 24C19.4948 23.3438 18.9375 22.7656 18.6875 22.2656C18.4479 21.7552 18.3281 20.9375 18.3281 19.8125V11.2031L16.625 9.73438L14.0938 11.75V20.6406L15.2188 21.7656L12.4531 24L9.67188 21.7656L10.8906 20.6406V12.6562C10.8906 11.5208 10.776 10.7552 10.5469 10.3594C10.3906 10.0885 10.2135 9.95312 10.0156 9.95312C9.80729 9.95312 9.49479 10.1146 9.07812 10.4375L8.70312 10L12.0312 7.34375C12.9479 7.98958 13.5208 8.5 13.75 8.875C13.9792 9.25 14.0938 9.77083 14.0938 10.4375V10.9688L18.6562 7.34375ZM29.5312 11.1562L34.3281 7.34375C35.3906 8.17708 36.0833 8.90104 36.4062 9.51562C36.7292 10.1198 36.8906 10.9062 36.8906 11.875V21.25C35.9948 21.4688 35.1562 21.7812 34.375 22.1875C33.6042 22.5833 32.7135 23.1875 31.7031 24C30.5677 23.1042 29.5208 22.474 28.5625 22.1094C27.6042 21.7448 26.5312 21.5469 25.3438 21.5156V21.125C25.7396 20.8854 26.0052 20.6094 26.1406 20.2969C26.2865 19.974 26.3594 19.3698 26.3594 18.4844V11.5C26.3594 11.1354 26.3229 10.849 26.25 10.6406C26.1771 10.4323 25.974 10.1094 25.6406 9.67188C25.3073 9.22396 25.0729 8.82292 24.9375 8.46875C24.8125 8.11458 24.75 7.71354 24.75 7.26562C24.75 6.44271 24.9948 5.71354 25.4844 5.07812C25.9844 4.43229 26.9219 3.73438 28.2969 2.98438L28.625 3.40625C27.5521 4.1875 27.0156 4.93229 27.0156 5.64062C27.0156 5.90104 27.0677 6.125 27.1719 6.3125C27.2969 6.5625 27.6094 6.95833 28.1094 7.5C28.6094 8.04167 28.9792 8.60417 29.2188 9.1875C29.3958 9.63542 29.5 10.2917 29.5312 11.1562ZM29.5312 12V19.5781L33.6719 21.4375V12.6875C33.6719 11.9271 33.5729 11.3646 33.375 11C33.1875 10.625 32.7812 10.2448 32.1562 9.85938L29.5312 12ZM46.5312 7.34375L50.9375 12.4844L43.9375 17.3906V20.2344L47.5625 21.6719L50.0156 20L50.3594 20.4688L45.2969 24C44.2656 23.4479 43.4167 23.0521 42.75 22.8125C42.0833 22.5729 41.1354 22.3229 39.9062 22.0625V21.6719C40.2604 21.4635 40.4948 21.2083 40.6094 20.9062C40.7344 20.5938 40.7969 19.9271 40.7969 18.9062V9.96875C41.776 9.61458 42.5885 9.29167 43.2344 9C43.7031 8.78125 44.8021 8.22917 46.5312 7.34375ZM44.1562 9.14062L43.9375 9.25V16.3281L48.0469 13.4531L44.1562 9.14062ZM60.5469 13.1406L64.1562 15.0312V21.6094C63.2812 21.6927 62.4896 21.9062 61.7812 22.25C61.0729 22.5938 60.2708 23.1771 59.375 24C58.6042 23.5417 57.9323 23.224 57.3594 23.0469C56.7969 22.8698 56.1979 22.7812 55.5625 22.7812C54.5833 22.7812 53.7135 23.0781 52.9531 23.6719C52.6719 23.8906 52.4688 24 52.3438 24C52.2292 24 52.1146 23.9427 52 23.8281C51.8854 23.7135 51.8281 23.599 51.8281 23.4844C51.8281 23.3594 51.9375 23.1927 52.1562 22.9844C52.2812 22.8594 52.4948 22.6198 52.7969 22.2656L54.2188 20.5L56.2344 17.8281L52.8125 15.9844V10.1562C53.8854 9.82292 54.724 9.45312 55.3281 9.04688C55.9427 8.63021 56.5312 8.0625 57.0938 7.34375C58.4271 7.90625 59.5 8.30208 60.3125 8.53125C60.8958 8.6875 61.4531 8.76562 61.9844 8.76562C62.5677 8.76562 63.0208 8.64062 63.3438 8.39062C63.6667 8.13021 63.8281 7.85938 63.8281 7.57812C63.8281 7.39062 63.724 7.20312 63.5156 7.01562C63.1094 6.65104 62.9062 6.29688 62.9062 5.95312C62.9062 5.63021 62.9948 5.375 63.1719 5.1875C63.349 4.98958 63.5469 4.89062 63.7656 4.89062C64.0573 4.89062 64.3177 5.02604 64.5469 5.29688C64.7865 5.55729 64.9062 5.90625 64.9062 6.34375C64.9062 6.79167 64.8125 7.22917 64.625 7.65625C64.4375 8.08333 64.0781 8.63542 63.5469 9.3125L60.5469 13.1406ZM55.9688 14.2188L58.1094 15.3281L61.5156 10.7969C60.8177 10.9948 60.2135 11.0938 59.7031 11.0938C58.4219 11.0938 57.1771 10.6667 55.9688 9.8125V14.2188ZM58.6562 15.6406L54.8906 20.6875C55.349 20.5312 55.776 20.4167 56.1719 20.3438C56.5677 20.2708 56.9271 20.2344 57.25 20.2344C58.4479 20.2344 59.6927 20.6302 60.9844 21.4219V16.8906L58.6562 15.6406ZM66.4844 9.0625L70.8438 3.67188H71.2969L71.1406 7.98438H74.2812V9.75H71.1406V20.2656L72.8906 21.5625L73.8906 20.7812L74.2812 21.25L70.8438 24C69.6667 22.8021 68.3333 21.9896 66.8438 21.5625V21.25C67.2604 20.9688 67.5365 20.6771 67.6719 20.375C67.849 19.9896 67.9375 19.4323 67.9375 18.7031V9.75H66.4844V9.0625ZM87.2188 9.625V21.3125C85.6562 21.9479 84.526 22.4688 83.8281 22.875C83.2969 23.1771 82.7865 23.5521 82.2969 24C80.7865 23.0833 79.5365 22.4479 78.5469 22.0938C77.7969 21.8229 76.9479 21.6667 76 21.625L75.8438 21.3125C76.2396 20.9792 76.4896 20.6771 76.5938 20.4062C76.7396 20.0521 76.8125 19.4531 76.8125 18.6094V10.0312C78.7188 9.39583 80.349 8.5 81.7031 7.34375C83.1823 8.32292 85.0208 9.08333 87.2188 9.625ZM79.9688 19.7969L84.0469 21.4688V11.5312C82.7656 10.9375 81.8594 10.5469 81.3281 10.3594C80.9531 10.224 80.5 10.1094 79.9688 10.0156V19.7969ZM98.9375 7.34375L101.297 10.1719L98.9375 12.2656L96.9688 9.78125L95.4219 11.1875V20.2969L97.2031 21.5781L98.8125 20.2969L99.1719 20.7969L95.1719 24C94.3177 23.2396 93.599 22.6927 93.0156 22.3594C92.4427 22.026 91.8125 21.7656 91.125 21.5781V21.2344C91.5833 20.9115 91.8802 20.5885 92.0156 20.2656C92.1615 19.9323 92.2344 19.3021 92.2344 18.375V12C92.2344 11.1979 92.1406 10.6667 91.9531 10.4062C91.776 10.1354 91.5781 10 91.3594 10C91.1198 10 90.7917 10.2083 90.375 10.625L90 10.1719L93.2969 7.34375C94.1823 8.02083 94.7865 8.60938 95.1094 9.10938C95.3177 9.42188 95.4219 9.85417 95.4219 10.4062L98.9375 7.34375ZM104 2.9375L106.312 0.640625L108.609 2.79688C108.036 5.32812 106.625 7.13542 104.375 8.21875L104 7.67188C104.688 7.10938 105.104 6.70833 105.25 6.46875C105.49 6.07292 105.609 5.68229 105.609 5.29688C105.609 4.95312 105.5 4.60938 105.281 4.26562C105.073 3.91146 104.646 3.46875 104 2.9375ZM116.203 13.1406L119.812 15.0312V21.6094C118.938 21.6927 118.146 21.9062 117.438 22.25C116.729 22.5938 115.927 23.1771 115.031 24C114.26 23.5417 113.589 23.224 113.016 23.0469C112.453 22.8698 111.854 22.7812 111.219 22.7812C110.24 22.7812 109.37 23.0781 108.609 23.6719C108.328 23.8906 108.125 24 108 24C107.885 24 107.771 23.9427 107.656 23.8281C107.542 23.7135 107.484 23.599 107.484 23.4844C107.484 23.3594 107.594 23.1927 107.812 22.9844C107.938 22.8594 108.151 22.6198 108.453 22.2656L109.875 20.5L111.891 17.8281L108.469 15.9844V10.1562C109.542 9.82292 110.38 9.45312 110.984 9.04688C111.599 8.63021 112.188 8.0625 112.75 7.34375C114.083 7.90625 115.156 8.30208 115.969 8.53125C116.552 8.6875 117.109 8.76562 117.641 8.76562C118.224 8.76562 118.677 8.64062 119 8.39062C119.323 8.13021 119.484 7.85938 119.484 7.57812C119.484 7.39062 119.38 7.20312 119.172 7.01562C118.766 6.65104 118.562 6.29688 118.562 5.95312C118.562 5.63021 118.651 5.375 118.828 5.1875C119.005 4.98958 119.203 4.89062 119.422 4.89062C119.714 4.89062 119.974 5.02604 120.203 5.29688C120.443 5.55729 120.562 5.90625 120.562 6.34375C120.562 6.79167 120.469 7.22917 120.281 7.65625C120.094 8.08333 119.734 8.63542 119.203 9.3125L116.203 13.1406ZM111.625 14.2188L113.766 15.3281L117.172 10.7969C116.474 10.9948 115.87 11.0938 115.359 11.0938C114.078 11.0938 112.833 10.6667 111.625 9.8125V14.2188ZM114.312 15.6406L110.547 20.6875C111.005 20.5312 111.432 20.4167 111.828 20.3438C112.224 20.2708 112.583 20.2344 112.906 20.2344C114.104 20.2344 115.349 20.6302 116.641 21.4219V16.8906L114.312 15.6406Z" fill="black"/>
</g>
<defs>
<filter id="filter0_d_10_466" x="0.296875" y="0.640625" width="122.266" height="25.3594" filterUnits="userSpaceOnUse" color-interpolation-filters="sRGB">
<feFlood flood-opacity="0" result="BackgroundImageFix"/>
<feColorMatrix in="SourceAlpha" type="matrix" values="0 0 0 0 0 0 0 0 0 0 0 0 0 0 0 0 0 0 127 0" result="hardAlpha"/>
<feOffset dx="2" dy="2"/>
<feComposite in2="hardAlpha" operator="out"/>
<feColorMatrix type="matrix" values="0 0 0 0 0.338677 0 0 0 0 0.0960938 0 0 0 0 0.854167 0 0 0 0.7 0"/>
<feBlend mode="normal" in2="BackgroundImageFix" result="effect1_dropShadow_10_466"/>
<feBlend mode="normal" in="SourceGraphic" in2="effect1_dropShadow_10_466" result="shape"/>
</filter>
</defs>
</svg>
