<svg width="43" height="23" viewBox="0 0 43 23" fill="none" xmlns="http://www.w3.org/2000/svg">
<g filter="url(#filter0_d_10_518)">
<path d="M0.339844 6.3125L2.71875 4.50781C3.35156 4.94531 3.76953 5.35156 3.97266 5.72656C4.18359 6.10156 4.28906 6.61719 4.28906 7.27344L7.32422 4.50781C8.34766 5.25 9.03125 5.88672 9.375 6.41797C9.59375 6.76172 9.70312 7.27344 9.70312 7.95312V14.5156C8.67969 14.9766 7.52734 15.8047 6.24609 17C5.78516 16.7031 5.13281 16.3594 4.28906 15.9688V16.8008C4.28906 17.7773 4.38672 18.4766 4.58203 18.8984C4.77734 19.3203 5.12891 19.6914 5.63672 20.0117L5.48438 20.3281C4.61719 20.0234 3.96875 19.7305 3.53906 19.4492C3.23438 19.2461 2.96094 18.9688 2.71875 18.6172C2.15625 19.1172 1.625 19.457 1.125 19.6367L0.972656 19.4023C1.30859 19.082 1.54297 18.75 1.67578 18.4062C1.81641 18.0703 1.88672 17.6016 1.88672 17V15.2891C1.44922 15.2031 0.996094 15.1602 0.527344 15.1602C0.488281 15.1602 0.425781 15.1641 0.339844 15.1719V14.1875C0.902344 14.0547 1.41797 13.9648 1.88672 13.918V8.08203C1.88672 7.44922 1.80469 7.01172 1.64062 6.76953C1.47656 6.52734 1.30859 6.40625 1.13672 6.40625C1.00391 6.40625 0.828125 6.50781 0.609375 6.71094L0.339844 6.3125ZM4.28906 7.88281V13.9297C5.20312 14.1172 5.82422 14.2617 6.15234 14.3633C6.48828 14.457 6.87891 14.6055 7.32422 14.8086V8.23438C7.32422 7.875 7.30859 7.66406 7.27734 7.60156C7.25391 7.53125 7.14062 7.41016 6.9375 7.23828C6.48438 6.84766 6.13281 6.56641 5.88281 6.39453L4.28906 7.88281ZM16.6406 0.207031V0.511719C16.0234 0.832031 15.5859 1.22656 15.3281 1.69531C15.0781 2.15625 14.9531 2.85937 14.9531 3.80469V14.2227L16.2891 15.2188L16.8047 14.7969L17.0977 15.2188L14.7539 17C14.043 16.3828 13.5117 15.9727 13.1602 15.7695C12.8086 15.5664 12.3438 15.3828 11.7656 15.2188V14.9609C11.9844 14.8281 12.1523 14.6602 12.2695 14.457C12.3945 14.2539 12.4805 14.0156 12.5273 13.7422C12.543 13.6484 12.5547 13.1797 12.5625 12.3359V3.96875C12.5625 3.25781 12.5352 2.76562 12.4805 2.49219C12.4258 2.21094 12.3164 1.94531 12.1523 1.69531C11.9883 1.4375 11.7109 1.15234 11.3203 0.839844L11.5078 0.605469C12.2188 0.808594 12.8555 1.22266 13.418 1.84766C14.0039 1.23047 14.5312 0.808594 15 0.582031C15.4766 0.355469 16.0234 0.230469 16.6406 0.207031ZM26.6953 5.01172L27.1172 5.17578C26.6953 5.83203 26.4258 6.33594 26.3086 6.6875C26.1992 7.03125 26.1445 7.5 26.1445 8.09375V13.0859C26.1445 13.9141 26.207 14.4336 26.332 14.6445C26.4648 14.8477 26.6211 14.9492 26.8008 14.9492C26.8945 14.9492 26.9922 14.9258 27.0938 14.8789C27.1562 14.8398 27.3398 14.6992 27.6445 14.457L27.9023 14.8438L25.2891 17C24.6875 16.5312 24.2852 16.1133 24.082 15.7461C23.8789 15.3711 23.7656 14.8516 23.7422 14.1875L20.1797 17C18.8438 15.9062 18.1758 14.8281 18.1758 13.7656C18.1758 13.0547 18.3203 12.3867 18.6094 11.7617C18.9922 10.9414 19.6523 9.98438 20.5898 8.89062L19.1836 5.89062L19.3477 5.5625C19.6523 5.59375 19.8789 5.60938 20.0273 5.60938C20.9492 5.60938 21.7617 5.24219 22.4648 4.50781C23.0352 4.84375 23.6562 5.11328 24.3281 5.31641C25.0078 5.51953 25.5273 5.62109 25.8867 5.62109C26.0508 5.62109 26.1758 5.59375 26.2617 5.53906C26.3477 5.47656 26.4922 5.30078 26.6953 5.01172ZM23.7422 7.25L19.7344 6.01953L21.1641 9.04297L23.7422 10.25V7.25ZM23.7422 10.7305L20.9062 9.40625C20.4688 10.3594 20.25 11.1953 20.25 11.9141C20.25 13.1797 20.8242 14.2227 21.9727 15.043L23.7422 13.6133V10.7305ZM36.2578 4.50781L38.1797 6.30078L39.3164 5.19922L39.6445 5.51562C39.0977 6.01562 38.7656 6.39453 38.6484 6.65234C38.4922 6.99609 38.4141 7.46875 38.4141 8.07031V13.6367C38.4141 14.1523 38.4961 14.5352 38.6602 14.7852C38.7617 14.9492 38.875 15.0312 39 15.0312C39.1094 15.0312 39.3672 14.8789 39.7734 14.5742L40.0547 14.9375L37.5352 17C36.8867 16.5078 36.4688 16.0742 36.2812 15.6992C36.1016 15.3164 36.0117 14.7031 36.0117 13.8594V7.40234L34.7344 6.30078L32.8359 7.8125V14.4805L33.6797 15.3242L31.6055 17L29.5195 15.3242L30.4336 14.4805V8.49219C30.4336 7.64062 30.3477 7.06641 30.1758 6.76953C30.0586 6.56641 29.9258 6.46484 29.7773 6.46484C29.6211 6.46484 29.3867 6.58594 29.0742 6.82812L28.793 6.5L31.2891 4.50781C31.9766 4.99219 32.4062 5.375 32.5781 5.65625C32.75 5.9375 32.8359 6.32812 32.8359 6.82812V7.22656L36.2578 4.50781Z" fill="black"/>
</g>
<defs>
<filter id="filter0_d_10_518" x="0.339844" y="0.207031" width="41.7148" height="22.1211" filterUnits="userSpaceOnUse" color-interpolation-filters="sRGB">
<feFlood flood-opacity="0" result="BackgroundImageFix"/>
<feColorMatrix in="SourceAlpha" type="matrix" values="0 0 0 0 0 0 0 0 0 0 0 0 0 0 0 0 0 0 127 0" result="hardAlpha"/>
<feOffset dx="2" dy="2"/>
<feComposite in2="hardAlpha" operator="out"/>
<feColorMatrix type="matrix" values="0 0 0 0 0.338677 0 0 0 0 0.0960938 0 0 0 0 0.854167 0 0 0 0.7 0"/>
<feBlend mode="normal" in2="BackgroundImageFix" result="effect1_dropShadow_10_518"/>
<feBlend mode="normal" in="SourceGraphic" in2="effect1_dropShadow_10_518" result="shape"/>
</filter>
</defs>
</svg>
