<svg width="99" height="30" viewBox="0 0 99 30" fill="none" xmlns="http://www.w3.org/2000/svg">
<g filter="url(#filter0_d_61_707)">
<path d="M0.453125 8.75L3.625 6.34375C4.46875 6.92708 5.02604 7.46875 5.29688 7.96875C5.57812 8.46875 5.71875 9.15625 5.71875 10.0312L9.76562 6.34375C11.1302 7.33333 12.0417 8.18229 12.5 8.89062C12.7917 9.34896 12.9375 10.0312 12.9375 10.9375V19.6875C11.5729 20.3021 10.0365 21.4062 8.32812 23C7.71354 22.6042 6.84375 22.1458 5.71875 21.625V22.7344C5.71875 24.0365 5.84896 24.9688 6.10938 25.5312C6.36979 26.0938 6.83854 26.5885 7.51562 27.0156L7.3125 27.4375C6.15625 27.0312 5.29167 26.6406 4.71875 26.2656C4.3125 25.9948 3.94792 25.625 3.625 25.1562C2.875 25.8229 2.16667 26.276 1.5 26.5156L1.29688 26.2031C1.74479 25.776 2.05729 25.3333 2.23438 24.875C2.42188 24.4271 2.51562 23.8021 2.51562 23V20.7188C1.93229 20.6042 1.32812 20.5469 0.703125 20.5469C0.651042 20.5469 0.567708 20.5521 0.453125 20.5625V19.25C1.20312 19.0729 1.89062 18.9531 2.51562 18.8906V11.1094C2.51562 10.2656 2.40625 9.68229 2.1875 9.35938C1.96875 9.03646 1.74479 8.875 1.51562 8.875C1.33854 8.875 1.10417 9.01042 0.8125 9.28125L0.453125 8.75ZM5.71875 10.8438V18.9062C6.9375 19.1562 7.76562 19.349 8.20312 19.4844C8.65104 19.6094 9.17188 19.8073 9.76562 20.0781V11.3125C9.76562 10.8333 9.74479 10.5521 9.70312 10.4688C9.67188 10.375 9.52083 10.2135 9.25 9.98438C8.64583 9.46354 8.17708 9.08854 7.84375 8.85938L5.71875 10.8438ZM24.125 6.34375L26.4844 9.17188L24.125 11.2656L22.1562 8.78125L20.6094 10.1875V19.2969L22.3906 20.5781L24 19.2969L24.3594 19.7969L20.3594 23C19.5052 22.2396 18.7865 21.6927 18.2031 21.3594C17.6302 21.026 17 20.7656 16.3125 20.5781V20.2344C16.7708 19.9115 17.0677 19.5885 17.2031 19.2656C17.349 18.9323 17.4219 18.3021 17.4219 17.375V11C17.4219 10.1979 17.3281 9.66667 17.1406 9.40625C16.9635 9.13542 16.7656 9 16.5469 9C16.3073 9 15.9792 9.20833 15.5625 9.625L15.1875 9.17188L18.4844 6.34375C19.3698 7.02083 19.974 7.60938 20.2969 8.10938C20.5052 8.42188 20.6094 8.85417 20.6094 9.40625L24.125 6.34375ZM39.4375 8.625V20.3125C37.875 20.9479 36.7448 21.4688 36.0469 21.875C35.5156 22.1771 35.0052 22.5521 34.5156 23C33.0052 22.0833 31.7552 21.4479 30.7656 21.0938C30.0156 20.8229 29.1667 20.6667 28.2188 20.625L28.0625 20.3125C28.4583 19.9792 28.7083 19.6771 28.8125 19.4062C28.9583 19.0521 29.0312 18.4531 29.0312 17.6094V9.03125C30.9375 8.39583 32.5677 7.5 33.9219 6.34375C35.401 7.32292 37.2396 8.08333 39.4375 8.625ZM32.1875 18.7969L36.2656 20.4688V10.5312C34.9844 9.9375 34.0781 9.54688 33.5469 9.35938C33.1719 9.22396 32.7188 9.10938 32.1875 9.01562V18.7969ZM47.4375 0.921875H49.4688L47.3438 4.25H46.6406L47.4375 0.921875ZM42.5 9.14062L46.1562 6.34375C46.6667 6.94792 47.1302 7.43229 47.5469 7.79688C47.974 8.16146 48.5833 8.60938 49.375 9.14062C48.7396 10.0469 48.2812 10.9115 48 11.7344C47.7188 12.5469 47.5781 13.4531 47.5781 14.4531C47.5781 15.4219 47.7031 16.6875 47.9531 18.25C48.1302 19.2917 48.2188 20.0677 48.2188 20.5781C48.2188 21.6823 47.9792 22.6823 47.5 23.5781C47.0312 24.4844 46.3438 25.2969 45.4375 26.0156C44.9062 26.4531 44.0885 26.9271 42.9844 27.4375L42.7188 26.8438C43.6458 26.2396 44.3281 25.5365 44.7656 24.7344C45.2135 23.9427 45.4375 23.1146 45.4375 22.25C45.4375 21.6562 45.3021 20.7188 45.0312 19.4375C44.6042 17.4583 44.3906 15.8802 44.3906 14.7031C44.3906 13.8698 44.4583 13.1094 44.5938 12.4219C44.7396 11.7344 44.9948 10.9375 45.3594 10.0312C45.0052 9.5625 44.5625 9.13542 44.0312 8.75L42.8906 9.59375L42.5 9.14062ZM58.25 6.34375L62.6562 11.4844L55.6562 16.3906V19.2344L59.2812 20.6719L61.7344 19L62.0781 19.4688L57.0156 23C55.9844 22.4479 55.1354 22.0521 54.4688 21.8125C53.8021 21.5729 52.8542 21.3229 51.625 21.0625V20.6719C51.9792 20.4635 52.2135 20.2083 52.3281 19.9062C52.4531 19.5938 52.5156 18.9271 52.5156 17.9062V8.96875C53.4948 8.61458 54.3073 8.29167 54.9531 8C55.4219 7.78125 56.5208 7.22917 58.25 6.34375ZM55.875 8.14062L55.6562 8.25V15.3281L59.7656 12.4531L55.875 8.14062ZM69.2188 6.34375L73.2812 8.65625L71.625 11.1094L68.5625 9.34375V19.2969L71.625 20.6875L73.2812 19.5156L73.4375 20.1719L69.5625 23C68.5625 22.4375 67.7083 22.026 67 21.7656C66.2917 21.4948 65.4219 21.2604 64.3906 21.0625V20.6875C64.7552 20.4375 64.9948 20.1667 65.1094 19.875C65.276 19.4688 65.3594 18.8333 65.3594 17.9688V9.07812C66.6615 8.48438 67.9479 7.57292 69.2188 6.34375ZM74.3906 8.0625L78.75 2.67188H79.2031L79.0469 6.98438H82.1875V8.75H79.0469V19.2656L80.7969 20.5625L81.7969 19.7812L82.1875 20.25L78.75 23C77.5729 21.8021 76.2396 20.9896 74.75 20.5625V20.25C75.1667 19.9688 75.4427 19.6771 75.5781 19.375C75.7552 18.9896 75.8438 18.4323 75.8438 17.7031V8.75H74.3906V8.0625ZM91.9219 12.1406L95.5312 14.0312V20.6094C94.6562 20.6927 93.8646 20.9062 93.1562 21.25C92.4479 21.5938 91.6458 22.1771 90.75 23C89.9792 22.5417 89.3073 22.224 88.7344 22.0469C88.1719 21.8698 87.5729 21.7812 86.9375 21.7812C85.9583 21.7812 85.0885 22.0781 84.3281 22.6719C84.0469 22.8906 83.8438 23 83.7188 23C83.6042 23 83.4896 22.9427 83.375 22.8281C83.2604 22.7135 83.2031 22.599 83.2031 22.4844C83.2031 22.3594 83.3125 22.1927 83.5312 21.9844C83.6562 21.8594 83.8698 21.6198 84.1719 21.2656L85.5938 19.5L87.6094 16.8281L84.1875 14.9844V9.15625C85.2604 8.82292 86.099 8.45312 86.7031 8.04688C87.3177 7.63021 87.9062 7.0625 88.4688 6.34375C89.8021 6.90625 90.875 7.30208 91.6875 7.53125C92.2708 7.6875 92.8281 7.76562 93.3594 7.76562C93.9427 7.76562 94.3958 7.64062 94.7188 7.39062C95.0417 7.13021 95.2031 6.85938 95.2031 6.57812C95.2031 6.39062 95.099 6.20312 94.8906 6.01562C94.4844 5.65104 94.2812 5.29688 94.2812 4.95312C94.2812 4.63021 94.3698 4.375 94.5469 4.1875C94.724 3.98958 94.9219 3.89062 95.1406 3.89062C95.4323 3.89062 95.6927 4.02604 95.9219 4.29688C96.1615 4.55729 96.2812 4.90625 96.2812 5.34375C96.2812 5.79167 96.1875 6.22917 96 6.65625C95.8125 7.08333 95.4531 7.63542 94.9219 8.3125L91.9219 12.1406ZM87.3438 13.2188L89.4844 14.3281L92.8906 9.79688C92.1927 9.99479 91.5885 10.0938 91.0781 10.0938C89.7969 10.0938 88.5521 9.66667 87.3438 8.8125V13.2188ZM90.0312 14.6406L86.2656 19.6875C86.724 19.5312 87.151 19.4167 87.5469 19.3438C87.9427 19.2708 88.3021 19.2344 88.625 19.2344C89.8229 19.2344 91.0677 19.6302 92.3594 20.4219V15.8906L90.0312 14.6406Z" fill="white"/>
</g>
<defs>
<filter id="filter0_d_61_707" x="0.453125" y="0.921875" width="97.8281" height="28.5156" filterUnits="userSpaceOnUse" color-interpolation-filters="sRGB">
<feFlood flood-opacity="0" result="BackgroundImageFix"/>
<feColorMatrix in="SourceAlpha" type="matrix" values="0 0 0 0 0 0 0 0 0 0 0 0 0 0 0 0 0 0 127 0" result="hardAlpha"/>
<feOffset dx="2" dy="2"/>
<feComposite in2="hardAlpha" operator="out"/>
<feColorMatrix type="matrix" values="0 0 0 0 0.0369792 0 0 0 0 0.275125 0 0 0 0 0.8875 0 0 0 0.7 0"/>
<feBlend mode="normal" in2="BackgroundImageFix" result="effect1_dropShadow_61_707"/>
<feBlend mode="normal" in="SourceGraphic" in2="effect1_dropShadow_61_707" result="shape"/>
</filter>
</defs>
</svg>
