<svg width="48" height="18" viewBox="0 0 48 18" fill="none" xmlns="http://www.w3.org/2000/svg">
<g filter="url(#filter0_d_10_599)">
<path d="M6.90234 7.85547L9.60938 9.27344V14.207C8.95312 14.2695 8.35938 14.4297 7.82812 14.6875C7.29688 14.9453 6.69531 15.3828 6.02344 16C5.44531 15.6562 4.94141 15.418 4.51172 15.2852C4.08984 15.1523 3.64062 15.0859 3.16406 15.0859C2.42969 15.0859 1.77734 15.3086 1.20703 15.7539C0.996094 15.918 0.84375 16 0.75 16C0.664062 16 0.578125 15.957 0.492188 15.8711C0.40625 15.7852 0.363281 15.6992 0.363281 15.6133C0.363281 15.5195 0.445312 15.3945 0.609375 15.2383C0.703125 15.1445 0.863281 14.9648 1.08984 14.6992L2.15625 13.375L3.66797 11.3711L1.10156 9.98828V5.61719C1.90625 5.36719 2.53516 5.08984 2.98828 4.78516C3.44922 4.47266 3.89062 4.04688 4.3125 3.50781C5.3125 3.92969 6.11719 4.22656 6.72656 4.39844C7.16406 4.51562 7.58203 4.57422 7.98047 4.57422C8.41797 4.57422 8.75781 4.48047 9 4.29297C9.24219 4.09766 9.36328 3.89453 9.36328 3.68359C9.36328 3.54297 9.28516 3.40234 9.12891 3.26172C8.82422 2.98828 8.67188 2.72266 8.67188 2.46484C8.67188 2.22266 8.73828 2.03125 8.87109 1.89062C9.00391 1.74219 9.15234 1.66797 9.31641 1.66797C9.53516 1.66797 9.73047 1.76953 9.90234 1.97266C10.082 2.16797 10.1719 2.42969 10.1719 2.75781C10.1719 3.09375 10.1016 3.42188 9.96094 3.74219C9.82031 4.0625 9.55078 4.47656 9.15234 4.98438L6.90234 7.85547ZM3.46875 8.66406L5.07422 9.49609L7.62891 6.09766C7.10547 6.24609 6.65234 6.32031 6.26953 6.32031C5.30859 6.32031 4.375 6 3.46875 5.35938V8.66406ZM5.48438 9.73047L2.66016 13.5156C3.00391 13.3984 3.32422 13.3125 3.62109 13.2578C3.91797 13.2031 4.1875 13.1758 4.42969 13.1758C5.32812 13.1758 6.26172 13.4727 7.23047 14.0664V10.668L5.48438 9.73047ZM11.3555 4.79688L14.625 0.753906H14.9648L14.8477 3.98828H17.2031V5.3125H14.8477V13.1992L16.1602 14.1719L16.9102 13.5859L17.2031 13.9375L14.625 16C13.7422 15.1016 12.7422 14.4922 11.625 14.1719V13.9375C11.9375 13.7266 12.1445 13.5078 12.2461 13.2812C12.3789 12.9922 12.4453 12.5742 12.4453 12.0273V5.3125H11.3555V4.79688ZM26.7891 4.01172L27.2109 4.17578C26.7891 4.83203 26.5195 5.33594 26.4023 5.6875C26.293 6.03125 26.2383 6.5 26.2383 7.09375V12.0859C26.2383 12.9141 26.3008 13.4336 26.4258 13.6445C26.5586 13.8477 26.7148 13.9492 26.8945 13.9492C26.9883 13.9492 27.0859 13.9258 27.1875 13.8789C27.25 13.8398 27.4336 13.6992 27.7383 13.457L27.9961 13.8438L25.3828 16C24.7812 15.5312 24.3789 15.1133 24.1758 14.7461C23.9727 14.3711 23.8594 13.8516 23.8359 13.1875L20.2734 16C18.9375 14.9062 18.2695 13.8281 18.2695 12.7656C18.2695 12.0547 18.4141 11.3867 18.7031 10.7617C19.0859 9.94141 19.7461 8.98438 20.6836 7.89062L19.2773 4.89062L19.4414 4.5625C19.7461 4.59375 19.9727 4.60938 20.1211 4.60938C21.043 4.60938 21.8555 4.24219 22.5586 3.50781C23.1289 3.84375 23.75 4.11328 24.4219 4.31641C25.1016 4.51953 25.6211 4.62109 25.9805 4.62109C26.1445 4.62109 26.2695 4.59375 26.3555 4.53906C26.4414 4.47656 26.5859 4.30078 26.7891 4.01172ZM23.8359 6.25L19.8281 5.01953L21.2578 8.04297L23.8359 9.25V6.25ZM23.8359 9.73047L21 8.40625C20.5625 9.35938 20.3438 10.1953 20.3438 10.9141C20.3438 12.1797 20.918 13.2227 22.0664 14.043L23.8359 12.6133V9.73047ZM28.8633 4.79688L32.1328 0.753906H32.4727L32.3555 3.98828H34.7109V5.3125H32.3555V13.1992L33.668 14.1719L34.418 13.5859L34.7109 13.9375L32.1328 16C31.25 15.1016 30.25 14.4922 29.1328 14.1719V13.9375C29.4453 13.7266 29.6523 13.5078 29.7539 13.2812C29.8867 12.9922 29.9531 12.5742 29.9531 12.0273V5.3125H28.8633V4.79688ZM42.0117 7.85547L44.7188 9.27344V14.207C44.0625 14.2695 43.4688 14.4297 42.9375 14.6875C42.4062 14.9453 41.8047 15.3828 41.1328 16C40.5547 15.6562 40.0508 15.418 39.6211 15.2852C39.1992 15.1523 38.75 15.0859 38.2734 15.0859C37.5391 15.0859 36.8867 15.3086 36.3164 15.7539C36.1055 15.918 35.9531 16 35.8594 16C35.7734 16 35.6875 15.957 35.6016 15.8711C35.5156 15.7852 35.4727 15.6992 35.4727 15.6133C35.4727 15.5195 35.5547 15.3945 35.7188 15.2383C35.8125 15.1445 35.9727 14.9648 36.1992 14.6992L37.2656 13.375L38.7773 11.3711L36.2109 9.98828V5.61719C37.0156 5.36719 37.6445 5.08984 38.0977 4.78516C38.5586 4.47266 39 4.04688 39.4219 3.50781C40.4219 3.92969 41.2266 4.22656 41.8359 4.39844C42.2734 4.51562 42.6914 4.57422 43.0898 4.57422C43.5273 4.57422 43.8672 4.48047 44.1094 4.29297C44.3516 4.09766 44.4727 3.89453 44.4727 3.68359C44.4727 3.54297 44.3945 3.40234 44.2383 3.26172C43.9336 2.98828 43.7812 2.72266 43.7812 2.46484C43.7812 2.22266 43.8477 2.03125 43.9805 1.89062C44.1133 1.74219 44.2617 1.66797 44.4258 1.66797C44.6445 1.66797 44.8398 1.76953 45.0117 1.97266C45.1914 2.16797 45.2812 2.42969 45.2812 2.75781C45.2812 3.09375 45.2109 3.42188 45.0703 3.74219C44.9297 4.0625 44.6602 4.47656 44.2617 4.98438L42.0117 7.85547ZM38.5781 8.66406L40.1836 9.49609L42.7383 6.09766C42.2148 6.24609 41.7617 6.32031 41.3789 6.32031C40.418 6.32031 39.4844 6 38.5781 5.35938V8.66406ZM40.5938 9.73047L37.7695 13.5156C38.1133 13.3984 38.4336 13.3125 38.7305 13.2578C39.0273 13.2031 39.2969 13.1758 39.5391 13.1758C40.4375 13.1758 41.3711 13.4727 42.3398 14.0664V10.668L40.5938 9.73047Z" fill="black"/>
</g>
<defs>
<filter id="filter0_d_10_599" x="0.363281" y="0.753906" width="46.918" height="17.2461" filterUnits="userSpaceOnUse" color-interpolation-filters="sRGB">
<feFlood flood-opacity="0" result="BackgroundImageFix"/>
<feColorMatrix in="SourceAlpha" type="matrix" values="0 0 0 0 0 0 0 0 0 0 0 0 0 0 0 0 0 0 127 0" result="hardAlpha"/>
<feOffset dx="2" dy="2"/>
<feComposite in2="hardAlpha" operator="out"/>
<feColorMatrix type="matrix" values="0 0 0 0 0.338677 0 0 0 0 0.0960938 0 0 0 0 0.854167 0 0 0 0.7 0"/>
<feBlend mode="normal" in2="BackgroundImageFix" result="effect1_dropShadow_10_599"/>
<feBlend mode="normal" in="SourceGraphic" in2="effect1_dropShadow_10_599" result="shape"/>
</filter>
</defs>
</svg>
