<svg width="60" height="19" viewBox="0 0 60 19" fill="none" xmlns="http://www.w3.org/2000/svg">
<g filter="url(#filter0_d_10_478)">
<path d="M3.91406 7.36719L7.51172 4.50781C8.30859 5.13281 8.82812 5.67578 9.07031 6.13672C9.3125 6.58984 9.43359 7.17969 9.43359 7.90625V14.9375C8.76172 15.1016 8.13281 15.3359 7.54688 15.6406C6.96875 15.9375 6.30078 16.3906 5.54297 17C4.69141 16.3281 3.90625 15.8555 3.1875 15.582C2.46875 15.3086 1.66406 15.1602 0.773438 15.1367V14.8438C1.07031 14.6641 1.26953 14.457 1.37109 14.2227C1.48047 13.9805 1.53516 13.5273 1.53516 12.8633V7.625C1.53516 7.35156 1.50781 7.13672 1.45312 6.98047C1.39844 6.82422 1.24609 6.58203 0.996094 6.25391C0.746094 5.91797 0.570312 5.61719 0.46875 5.35156C0.375 5.08594 0.328125 4.78516 0.328125 4.44922C0.328125 3.83203 0.511719 3.28516 0.878906 2.80859C1.25391 2.32422 1.95703 1.80078 2.98828 1.23828L3.23438 1.55469C2.42969 2.14062 2.02734 2.69922 2.02734 3.23047C2.02734 3.42578 2.06641 3.59375 2.14453 3.73438C2.23828 3.92188 2.47266 4.21875 2.84766 4.625C3.22266 5.03125 3.5 5.45312 3.67969 5.89062C3.8125 6.22656 3.89062 6.71875 3.91406 7.36719ZM3.91406 8V13.6836L7.01953 15.0781V8.51562C7.01953 7.94531 6.94531 7.52344 6.79688 7.25C6.65625 6.96875 6.35156 6.68359 5.88281 6.39453L3.91406 8ZM14.6836 0.5H16.1719L14.5547 3.03125H14.0859L14.6836 0.5ZM13.793 4.50781L15.8789 6.23047L14.9531 7.13281V13.5078C14.9531 14.1797 15.0156 14.6172 15.1406 14.8203C15.2656 15.0234 15.3945 15.125 15.5273 15.125C15.6211 15.125 15.707 15.1055 15.7852 15.0664C15.8945 15.0117 16.1211 14.8555 16.4648 14.5977L16.7461 14.9609L14.0859 17C13.4609 16.5547 13.0586 16.1367 12.8789 15.7461C12.6992 15.3477 12.6094 14.6562 12.6094 13.6719V7.13281L11.7305 6.23047L13.793 4.50781ZM24.4102 8.85547L27.1172 10.2734V15.207C26.4609 15.2695 25.8672 15.4297 25.3359 15.6875C24.8047 15.9453 24.2031 16.3828 23.5312 17C22.9531 16.6562 22.4492 16.418 22.0195 16.2852C21.5977 16.1523 21.1484 16.0859 20.6719 16.0859C19.9375 16.0859 19.2852 16.3086 18.7148 16.7539C18.5039 16.918 18.3516 17 18.2578 17C18.1719 17 18.0859 16.957 18 16.8711C17.9141 16.7852 17.8711 16.6992 17.8711 16.6133C17.8711 16.5195 17.9531 16.3945 18.1172 16.2383C18.2109 16.1445 18.3711 15.9648 18.5977 15.6992L19.6641 14.375L21.1758 12.3711L18.6094 10.9883V6.61719C19.4141 6.36719 20.043 6.08984 20.4961 5.78516C20.957 5.47266 21.3984 5.04688 21.8203 4.50781C22.8203 4.92969 23.625 5.22656 24.2344 5.39844C24.6719 5.51562 25.0898 5.57422 25.4883 5.57422C25.9258 5.57422 26.2656 5.48047 26.5078 5.29297C26.75 5.09766 26.8711 4.89453 26.8711 4.68359C26.8711 4.54297 26.793 4.40234 26.6367 4.26172C26.332 3.98828 26.1797 3.72266 26.1797 3.46484C26.1797 3.22266 26.2461 3.03125 26.3789 2.89062C26.5117 2.74219 26.6602 2.66797 26.8242 2.66797C27.043 2.66797 27.2383 2.76953 27.4102 2.97266C27.5898 3.16797 27.6797 3.42969 27.6797 3.75781C27.6797 4.09375 27.6094 4.42188 27.4688 4.74219C27.3281 5.0625 27.0586 5.47656 26.6602 5.98438L24.4102 8.85547ZM20.9766 9.66406L22.582 10.4961L25.1367 7.09766C24.6133 7.24609 24.1602 7.32031 23.7773 7.32031C22.8164 7.32031 21.8828 7 20.9766 6.35938V9.66406ZM22.9922 10.7305L20.168 14.5156C20.5117 14.3984 20.832 14.3125 21.1289 14.2578C21.4258 14.2031 21.6953 14.1758 21.9375 14.1758C22.8359 14.1758 23.7695 14.4727 24.7383 15.0664V11.668L22.9922 10.7305ZM32.2852 0.5H33.7734L32.1562 3.03125H31.6875L32.2852 0.5ZM31.3945 4.50781L33.4805 6.23047L32.5547 7.13281V13.5078C32.5547 14.1797 32.6172 14.6172 32.7422 14.8203C32.8672 15.0234 32.9961 15.125 33.1289 15.125C33.2227 15.125 33.3086 15.1055 33.3867 15.0664C33.4961 15.0117 33.7227 14.8555 34.0664 14.5977L34.3477 14.9609L31.6875 17C31.0625 16.5547 30.6602 16.1367 30.4805 15.7461C30.3008 15.3477 30.2109 14.6562 30.2109 13.6719V7.13281L29.332 6.23047L31.3945 4.50781ZM44.4141 6.21875V14.9844C43.2422 15.4609 42.3945 15.8516 41.8711 16.1562C41.4727 16.3828 41.0898 16.6641 40.7227 17C39.5898 16.3125 38.6523 15.8359 37.9102 15.5703C37.3477 15.3672 36.7109 15.25 36 15.2188L35.8828 14.9844C36.1797 14.7344 36.3672 14.5078 36.4453 14.3047C36.5547 14.0391 36.6094 13.5898 36.6094 12.957V6.52344C38.0391 6.04688 39.2617 5.375 40.2773 4.50781C41.3867 5.24219 42.7656 5.8125 44.4141 6.21875ZM38.9766 13.8477L42.0352 15.1016V7.64844C41.0742 7.20312 40.3945 6.91016 39.9961 6.76953C39.7148 6.66797 39.375 6.58203 38.9766 6.51172V13.8477ZM53.8594 4.50781L55.7812 6.30078L56.918 5.19922L57.2461 5.51562C56.6992 6.01562 56.3672 6.39453 56.25 6.65234C56.0938 6.99609 56.0156 7.46875 56.0156 8.07031V13.6367C56.0156 14.1523 56.0977 14.5352 56.2617 14.7852C56.3633 14.9492 56.4766 15.0312 56.6016 15.0312C56.7109 15.0312 56.9688 14.8789 57.375 14.5742L57.6562 14.9375L55.1367 17C54.4883 16.5078 54.0703 16.0742 53.8828 15.6992C53.7031 15.3164 53.6133 14.7031 53.6133 13.8594V7.40234L52.3359 6.30078L50.4375 7.8125V14.4805L51.2812 15.3242L49.207 17L47.1211 15.3242L48.0352 14.4805V8.49219C48.0352 7.64062 47.9492 7.06641 47.7773 6.76953C47.6602 6.56641 47.5273 6.46484 47.3789 6.46484C47.2227 6.46484 46.9883 6.58594 46.6758 6.82812L46.3945 6.5L48.8906 4.50781C49.5781 4.99219 50.0078 5.375 50.1797 5.65625C50.3516 5.9375 50.4375 6.32812 50.4375 6.82812V7.22656L53.8594 4.50781Z" fill="black"/>
</g>
<defs>
<filter id="filter0_d_10_478" x="0.328125" y="0.5" width="59.3281" height="18.5" filterUnits="userSpaceOnUse" color-interpolation-filters="sRGB">
<feFlood flood-opacity="0" result="BackgroundImageFix"/>
<feColorMatrix in="SourceAlpha" type="matrix" values="0 0 0 0 0 0 0 0 0 0 0 0 0 0 0 0 0 0 127 0" result="hardAlpha"/>
<feOffset dx="2" dy="2"/>
<feComposite in2="hardAlpha" operator="out"/>
<feColorMatrix type="matrix" values="0 0 0 0 0.338677 0 0 0 0 0.0960938 0 0 0 0 0.854167 0 0 0 0.7 0"/>
<feBlend mode="normal" in2="BackgroundImageFix" result="effect1_dropShadow_10_478"/>
<feBlend mode="normal" in="SourceGraphic" in2="effect1_dropShadow_10_478" result="shape"/>
</filter>
</defs>
</svg>
