<svg width="137" height="30" viewBox="0 0 137 30" fill="none" xmlns="http://www.w3.org/2000/svg">
<g filter="url(#filter0_d_10_640)">
<path d="M13.1094 10.1094L17.75 6.34375C18.7188 7.04167 19.349 7.66146 19.6406 8.20312C20.0469 8.93229 20.25 9.78125 20.25 10.75V20.2188C19.1562 20.5625 18.2344 20.9427 17.4844 21.3594C16.7344 21.776 15.974 22.3229 15.2031 23C13.4427 21.8854 11.974 21.3281 10.7969 21.3281C9.69271 21.3281 8.58854 21.8854 7.48438 23C6.45312 22.1458 5.46354 21.5312 4.51562 21.1562C3.57812 20.7708 2.55208 20.5469 1.4375 20.4844V20.1094C1.90625 19.9219 2.23438 19.6562 2.42188 19.3125C2.61979 18.9583 2.71875 18.276 2.71875 17.2656V11.3438C2.71875 10.4167 2.6875 9.85417 2.625 9.65625C2.57292 9.44792 2.40625 9.18229 2.125 8.85938C1.67708 8.33854 1.375 7.89583 1.21875 7.53125C1.0625 7.15625 0.984375 6.72917 0.984375 6.25C0.984375 5.375 1.25521 4.60938 1.79688 3.95312C2.33854 3.28646 3.29167 2.61979 4.65625 1.95312L4.9375 2.35938C3.8125 3.14062 3.25 3.90104 3.25 4.64062C3.25 4.90104 3.3125 5.14583 3.4375 5.375C3.5 5.48958 3.88021 5.93229 4.57812 6.70312C5.04688 7.21354 5.40625 7.78125 5.65625 8.40625C5.80208 8.78125 5.90104 9.31771 5.95312 10.0156L10.5 6.34375C11.3333 6.89583 11.9479 7.46875 12.3438 8.0625C12.75 8.65625 13.0052 9.33854 13.1094 10.1094ZM5.95312 10.7969V18.7969L9.89062 20.4375V11.9219C9.89062 11.026 9.79688 10.3958 9.60938 10.0312C9.42188 9.66667 8.99479 9.27083 8.32812 8.84375L5.95312 10.7969ZM13.1094 10.9062V18.7188L17.0781 20.3906V11.7031C17.0781 10.9323 17 10.4062 16.8438 10.125C16.6979 9.83333 16.2656 9.41146 15.5469 8.85938L13.1094 10.9062ZM28.9375 0.609375L29.0938 0.984375C28.3542 1.46354 27.849 1.97396 27.5781 2.51562C27.3073 3.05729 27.1719 3.91667 27.1719 5.09375V10.1875L32 6.34375C33.0312 7.01042 33.7031 7.65625 34.0156 8.28125C34.3281 8.89583 34.4844 9.94792 34.4844 11.4375V18.5156C34.4844 19.8698 34.3438 20.8594 34.0625 21.4844C33.6146 22.5052 32.7865 23.4635 31.5781 24.3594C29.9948 25.5469 27.9792 26.5729 25.5312 27.4375L25.3125 26.8594C27.3021 26.0365 28.6875 25.2865 29.4688 24.6094C30.25 23.9323 30.7604 23.2135 31 22.4531C31.1771 21.8802 31.2656 20.3906 31.2656 17.9844V11.4375C31.2656 10.7083 31.1927 10.2031 31.0469 9.92188C30.8281 9.53646 30.4271 9.15625 29.8438 8.78125L27.1719 10.9531V19.6562L28.2812 20.7656L25.5312 23L22.75 20.7656L23.9844 19.5312V5.3125C23.9844 4.02083 23.8698 3.13542 23.6406 2.65625C23.4115 2.17708 22.9583 1.74479 22.2812 1.35938L22.4531 0.984375C23.0052 1.14062 23.4479 1.31771 23.7812 1.51562C24.1146 1.70312 24.5521 2.03646 25.0938 2.51562C25.7292 1.91146 26.3385 1.46875 26.9219 1.1875C27.5052 0.90625 28.1771 0.713542 28.9375 0.609375ZM41.2344 1H43.2188L41.0625 4.375H40.4375L41.2344 1ZM40.0469 6.34375L42.8281 8.64062L41.5938 9.84375V18.3438C41.5938 19.2396 41.6771 19.8229 41.8438 20.0938C42.0104 20.3646 42.1823 20.5 42.3594 20.5C42.4844 20.5 42.599 20.474 42.7031 20.4219C42.849 20.349 43.151 20.1406 43.6094 19.7969L43.9844 20.2812L40.4375 23C39.6042 22.4062 39.0677 21.849 38.8281 21.3281C38.5885 20.7969 38.4688 19.875 38.4688 18.5625V9.84375L37.2969 8.64062L40.0469 6.34375ZM45.6719 8.0625L50.0312 2.67188H50.4844L50.3281 6.98438H53.4688V8.75H50.3281V19.2656L52.0781 20.5625L53.0781 19.7812L53.4688 20.25L50.0312 23C48.8542 21.8021 47.5208 20.9896 46.0312 20.5625V20.25C46.4479 19.9688 46.724 19.6771 46.8594 19.375C47.0365 18.9896 47.125 18.4323 47.125 17.7031V8.75H45.6719V8.0625ZM61.875 6.34375L66.2812 11.4844L59.2812 16.3906V19.2344L62.9062 20.6719L65.3594 19L65.7031 19.4688L60.6406 23C59.6094 22.4479 58.7604 22.0521 58.0938 21.8125C57.4271 21.5729 56.4792 21.3229 55.25 21.0625V20.6719C55.6042 20.4635 55.8385 20.2083 55.9531 19.9062C56.0781 19.5938 56.1406 18.9271 56.1406 17.9062V8.96875C57.1198 8.61458 57.9323 8.29167 58.5781 8C59.0469 7.78125 60.1458 7.22917 61.875 6.34375ZM59.5 8.14062L59.2812 8.25V15.3281L63.3906 12.4531L59.5 8.14062ZM67.1406 8.75L70.3125 6.34375C71.1562 6.92708 71.7135 7.46875 71.9844 7.96875C72.2656 8.46875 72.4062 9.15625 72.4062 10.0312L76.4531 6.34375C77.8177 7.33333 78.7292 8.18229 79.1875 8.89062C79.4792 9.34896 79.625 10.0312 79.625 10.9375V19.6875C78.2604 20.3021 76.724 21.4062 75.0156 23C74.401 22.6042 73.5312 22.1458 72.4062 21.625V22.7344C72.4062 24.0365 72.5365 24.9688 72.7969 25.5312C73.0573 26.0938 73.526 26.5885 74.2031 27.0156L74 27.4375C72.8438 27.0312 71.9792 26.6406 71.4062 26.2656C71 25.9948 70.6354 25.625 70.3125 25.1562C69.5625 25.8229 68.8542 26.276 68.1875 26.5156L67.9844 26.2031C68.4323 25.776 68.7448 25.3333 68.9219 24.875C69.1094 24.4271 69.2031 23.8021 69.2031 23V20.7188C68.6198 20.6042 68.0156 20.5469 67.3906 20.5469C67.3385 20.5469 67.2552 20.5521 67.1406 20.5625V19.25C67.8906 19.0729 68.5781 18.9531 69.2031 18.8906V11.1094C69.2031 10.2656 69.0938 9.68229 68.875 9.35938C68.6562 9.03646 68.4323 8.875 68.2031 8.875C68.026 8.875 67.7917 9.01042 67.5 9.28125L67.1406 8.75ZM72.4062 10.8438V18.9062C73.625 19.1562 74.4531 19.349 74.8906 19.4844C75.3385 19.6094 75.8594 19.8073 76.4531 20.0781V11.3125C76.4531 10.8333 76.4323 10.5521 76.3906 10.4688C76.3594 10.375 76.2083 10.2135 75.9375 9.98438C75.3333 9.46354 74.8646 9.08854 74.5312 8.85938L72.4062 10.8438ZM93.2812 7.01562L93.8438 7.23438C93.2812 8.10938 92.9219 8.78125 92.7656 9.25C92.6198 9.70833 92.5469 10.3333 92.5469 11.125V17.7812C92.5469 18.8854 92.6302 19.5781 92.7969 19.8594C92.974 20.1302 93.1823 20.2656 93.4219 20.2656C93.5469 20.2656 93.6771 20.2344 93.8125 20.1719C93.8958 20.1198 94.1406 19.9323 94.5469 19.6094L94.8906 20.125L91.4062 23C90.6042 22.375 90.0677 21.8177 89.7969 21.3281C89.526 20.8281 89.375 20.1354 89.3438 19.25L84.5938 23C82.8125 21.5417 81.9219 20.1042 81.9219 18.6875C81.9219 17.7396 82.1146 16.849 82.5 16.0156C83.0104 14.9219 83.8906 13.6458 85.1406 12.1875L83.2656 8.1875L83.4844 7.75C83.8906 7.79167 84.1927 7.8125 84.3906 7.8125C85.6198 7.8125 86.7031 7.32292 87.6406 6.34375C88.401 6.79167 89.2292 7.15104 90.125 7.42188C91.0312 7.69271 91.724 7.82812 92.2031 7.82812C92.4219 7.82812 92.5885 7.79167 92.7031 7.71875C92.8177 7.63542 93.0104 7.40104 93.2812 7.01562ZM89.3438 10L84 8.35938L85.9062 12.3906L89.3438 14V10ZM89.3438 14.6406L85.5625 12.875C84.9792 14.1458 84.6875 15.2604 84.6875 16.2188C84.6875 17.9062 85.4531 19.2969 86.9844 20.3906L89.3438 18.4844V14.6406ZM95.8281 8.75L99 6.34375C99.8438 6.92708 100.401 7.46875 100.672 7.96875C100.953 8.46875 101.094 9.15625 101.094 10.0312L105.141 6.34375C106.505 7.33333 107.417 8.18229 107.875 8.89062C108.167 9.34896 108.312 10.0312 108.312 10.9375V19.6875C106.948 20.3021 105.411 21.4062 103.703 23C103.089 22.6042 102.219 22.1458 101.094 21.625V22.7344C101.094 24.0365 101.224 24.9688 101.484 25.5312C101.745 26.0938 102.214 26.5885 102.891 27.0156L102.688 27.4375C101.531 27.0312 100.667 26.6406 100.094 26.2656C99.6875 25.9948 99.3229 25.625 99 25.1562C98.25 25.8229 97.5417 26.276 96.875 26.5156L96.6719 26.2031C97.1198 25.776 97.4323 25.3333 97.6094 24.875C97.7969 24.4271 97.8906 23.8021 97.8906 23V20.7188C97.3073 20.6042 96.7031 20.5469 96.0781 20.5469C96.026 20.5469 95.9427 20.5521 95.8281 20.5625V19.25C96.5781 19.0729 97.2656 18.9531 97.8906 18.8906V11.1094C97.8906 10.2656 97.7812 9.68229 97.5625 9.35938C97.3438 9.03646 97.1198 8.875 96.8906 8.875C96.7135 8.875 96.4792 9.01042 96.1875 9.28125L95.8281 8.75ZM101.094 10.8438V18.9062C102.312 19.1562 103.141 19.349 103.578 19.4844C104.026 19.6094 104.547 19.8073 105.141 20.0781V11.3125C105.141 10.8333 105.12 10.5521 105.078 10.4688C105.047 10.375 104.896 10.2135 104.625 9.98438C104.021 9.46354 103.552 9.08854 103.219 8.85938L101.094 10.8438ZM117.594 6.34375L122 11.4844L115 16.3906V19.2344L118.625 20.6719L121.078 19L121.422 19.4688L116.359 23C115.328 22.4479 114.479 22.0521 113.812 21.8125C113.146 21.5729 112.198 21.3229 110.969 21.0625V20.6719C111.323 20.4635 111.557 20.2083 111.672 19.9062C111.797 19.5938 111.859 18.9271 111.859 17.9062V8.96875C112.839 8.61458 113.651 8.29167 114.297 8C114.766 7.78125 115.865 7.22917 117.594 6.34375ZM115.219 8.14062L115 8.25V15.3281L119.109 12.4531L115.219 8.14062ZM132.188 6.34375L134.547 9.17188L132.188 11.2656L130.219 8.78125L128.672 10.1875V19.2969L130.453 20.5781L132.062 19.2969L132.422 19.7969L128.422 23C127.568 22.2396 126.849 21.6927 126.266 21.3594C125.693 21.026 125.062 20.7656 124.375 20.5781V20.2344C124.833 19.9115 125.13 19.5885 125.266 19.2656C125.411 18.9323 125.484 18.3021 125.484 17.375V11C125.484 10.1979 125.391 9.66667 125.203 9.40625C125.026 9.13542 124.828 9 124.609 9C124.37 9 124.042 9.20833 123.625 9.625L123.25 9.17188L126.547 6.34375C127.432 7.02083 128.036 7.60938 128.359 8.10938C128.568 8.42188 128.672 8.85417 128.672 9.40625L132.188 6.34375Z" fill="black"/>
</g>
<defs>
<filter id="filter0_d_10_640" x="0.984375" y="0.609375" width="135.562" height="28.8281" filterUnits="userSpaceOnUse" color-interpolation-filters="sRGB">
<feFlood flood-opacity="0" result="BackgroundImageFix"/>
<feColorMatrix in="SourceAlpha" type="matrix" values="0 0 0 0 0 0 0 0 0 0 0 0 0 0 0 0 0 0 127 0" result="hardAlpha"/>
<feOffset dx="2" dy="2"/>
<feComposite in2="hardAlpha" operator="out"/>
<feColorMatrix type="matrix" values="0 0 0 0 0.338677 0 0 0 0 0.0960938 0 0 0 0 0.854167 0 0 0 0.7 0"/>
<feBlend mode="normal" in2="BackgroundImageFix" result="effect1_dropShadow_10_640"/>
<feBlend mode="normal" in="SourceGraphic" in2="effect1_dropShadow_10_640" result="shape"/>
</filter>
</defs>
</svg>
