<svg width="15" height="15" viewBox="0 0 15 15" fill="none" xmlns="http://www.w3.org/2000/svg">
<path fill-rule="evenodd" clip-rule="evenodd" d="M11.2413 0.998358C10.1401 0.363318 8.8625 0 7.5 0C3.35786 0 0 3.35786 0 7.5C0 11.6421 3.35786 15 7.5 15C11.6421 15 15 11.6421 15 7.5C15 5.81104 14.4417 4.25247 13.4996 2.99877L12.7572 3.67671C13.5388 4.74963 14 6.07096 14 7.5C14 11.0899 11.0899 14 7.5 14C3.91015 14 1 11.0899 1 7.5C1 3.91015 3.91015 1 7.5 1C8.56617 1 9.57239 1.25669 10.4602 1.71165L11.2413 0.998358Z" fill="black"/>
</svg>
