<svg width="22" height="22" viewBox="0 0 22 22" fill="none" xmlns="http://www.w3.org/2000/svg">
<mask id="path-1-inside-1_10_686" fill="white">
<path fill-rule="evenodd" clip-rule="evenodd" d="M16 1H6C3.23858 1 1 3.23858 1 6V16C1 18.7614 3.23858 21 6 21H16C18.7614 21 21 18.7614 21 16V6C21 3.23858 18.7614 1 16 1ZM6 0C2.68629 0 0 2.68629 0 6V16C0 19.3137 2.68629 22 6 22H16C19.3137 22 22 19.3137 22 16V6C22 2.68629 19.3137 0 16 0H6ZM6.92253 10.9994C6.92253 13.2511 8.74783 15.0764 10.9994 15.0764C13.2511 15.0764 15.0764 13.2511 15.0764 10.9994C15.0764 8.74783 13.2511 6.92253 10.9994 6.92253C8.74783 6.92253 6.92253 8.74783 6.92253 10.9994ZM10.9994 5.92253C8.19554 5.92253 5.92253 8.19554 5.92253 10.9994C5.92253 13.8034 8.19554 16.0764 10.9994 16.0764C13.8034 16.0764 16.0764 13.8034 16.0764 10.9994C16.0764 8.19554 13.8034 5.92253 10.9994 5.92253ZM17.3467 3.38379C16.6457 3.38379 16.0775 3.95204 16.0775 4.65302C16.0775 5.354 16.6457 5.92225 17.3467 5.92225C18.0477 5.92225 18.6159 5.354 18.6159 4.65302C18.6159 3.95204 18.0477 3.38379 17.3467 3.38379Z"/>
</mask>
<path fill-rule="evenodd" clip-rule="evenodd" d="M16 1H6C3.23858 1 1 3.23858 1 6V16C1 18.7614 3.23858 21 6 21H16C18.7614 21 21 18.7614 21 16V6C21 3.23858 18.7614 1 16 1ZM6 0C2.68629 0 0 2.68629 0 6V16C0 19.3137 2.68629 22 6 22H16C19.3137 22 22 19.3137 22 16V6C22 2.68629 19.3137 0 16 0H6ZM6.92253 10.9994C6.92253 13.2511 8.74783 15.0764 10.9994 15.0764C13.2511 15.0764 15.0764 13.2511 15.0764 10.9994C15.0764 8.74783 13.2511 6.92253 10.9994 6.92253C8.74783 6.92253 6.92253 8.74783 6.92253 10.9994ZM10.9994 5.92253C8.19554 5.92253 5.92253 8.19554 5.92253 10.9994C5.92253 13.8034 8.19554 16.0764 10.9994 16.0764C13.8034 16.0764 16.0764 13.8034 16.0764 10.9994C16.0764 8.19554 13.8034 5.92253 10.9994 5.92253ZM17.3467 3.38379C16.6457 3.38379 16.0775 3.95204 16.0775 4.65302C16.0775 5.354 16.6457 5.92225 17.3467 5.92225C18.0477 5.92225 18.6159 5.354 18.6159 4.65302C18.6159 3.95204 18.0477 3.38379 17.3467 3.38379Z" fill="black"/>
<path d="M6 2H16V0H6V2ZM2 6C2 3.79086 3.79086 2 6 2V0C2.68629 0 0 2.68629 0 6H2ZM2 16V6H0V16H2ZM6 20C3.79086 20 2 18.2091 2 16H0C0 19.3137 2.68629 22 6 22V20ZM16 20H6V22H16V20ZM20 16C20 18.2091 18.2091 20 16 20V22C19.3137 22 22 19.3137 22 16H20ZM20 6V16H22V6H20ZM16 2C18.2091 2 20 3.79086 20 6H22C22 2.68629 19.3137 0 16 0V2ZM1 6C1 3.23858 3.23858 1 6 1V-1C2.13401 -1 -1 2.13401 -1 6H1ZM1 16V6H-1V16H1ZM6 21C3.23858 21 1 18.7614 1 16H-1C-1 19.866 2.13401 23 6 23V21ZM16 21H6V23H16V21ZM21 16C21 18.7614 18.7614 21 16 21V23C19.866 23 23 19.866 23 16H21ZM21 6V16H23V6H21ZM16 1C18.7614 1 21 3.23858 21 6H23C23 2.13401 19.866 -1 16 -1V1ZM6 1H16V-1H6V1ZM10.9994 14.0764C9.30011 14.0764 7.92253 12.6988 7.92253 10.9994H5.92253C5.92253 13.8034 8.19554 16.0764 10.9994 16.0764V14.0764ZM14.0764 10.9994C14.0764 12.6988 12.6988 14.0764 10.9994 14.0764V16.0764C13.8034 16.0764 16.0764 13.8034 16.0764 10.9994H14.0764ZM10.9994 7.92253C12.6988 7.92253 14.0764 9.30011 14.0764 10.9994H16.0764C16.0764 8.19554 13.8034 5.92253 10.9994 5.92253V7.92253ZM7.92253 10.9994C7.92253 9.30011 9.30011 7.92253 10.9994 7.92253V5.92253C8.19554 5.92253 5.92253 8.19554 5.92253 10.9994H7.92253ZM6.92253 10.9994C6.92253 8.74783 8.74783 6.92253 10.9994 6.92253V4.92253C7.64326 4.92253 4.92253 7.64326 4.92253 10.9994H6.92253ZM10.9994 15.0764C8.74783 15.0764 6.92253 13.2511 6.92253 10.9994H4.92253C4.92253 14.3556 7.64326 17.0764 10.9994 17.0764V15.0764ZM15.0764 10.9994C15.0764 13.2511 13.2511 15.0764 10.9994 15.0764V17.0764C14.3556 17.0764 17.0764 14.3556 17.0764 10.9994H15.0764ZM10.9994 6.92253C13.2511 6.92253 15.0764 8.74783 15.0764 10.9994H17.0764C17.0764 7.64326 14.3556 4.92253 10.9994 4.92253V6.92253ZM17.0775 4.65302C17.0775 4.50433 17.198 4.38379 17.3467 4.38379V2.38379C16.0934 2.38379 15.0775 3.39976 15.0775 4.65302H17.0775ZM17.3467 4.92225C17.198 4.92225 17.0775 4.80171 17.0775 4.65302H15.0775C15.0775 5.90628 16.0934 6.92225 17.3467 6.92225V4.92225ZM17.6159 4.65302C17.6159 4.80171 17.4954 4.92225 17.3467 4.92225V6.92225C18.6 6.92225 19.6159 5.90628 19.6159 4.65302H17.6159ZM17.3467 4.38379C17.4954 4.38379 17.6159 4.50433 17.6159 4.65302H19.6159C19.6159 3.39976 18.6 2.38379 17.3467 2.38379V4.38379Z" fill="black" mask="url(#path-1-inside-1_10_686)"/>
</svg>
