<svg width="1086" height="346" viewBox="0 0 1086 346" fill="none" xmlns="http://www.w3.org/2000/svg">
<path fill-rule="evenodd" clip-rule="evenodd" d="M637.934 0L637.934 345.998H637.934H666.806H707.229V317.165H666.806L666.806 206.445H684.133V177.612H666.806L666.806 28.8359H707.229V0.00276756H666.806V0H637.934Z" fill="black"/>
<path fill-rule="evenodd" clip-rule="evenodd" d="M1016.7 0L1016.7 345.998H1016.7H1045.58H1086V317.165H1045.58L1045.58 206.445H1062.9V177.612H1045.58L1045.58 28.8359H1086V0.00276756H1045.58V0H1016.7Z" fill="black"/>
<path fill-rule="evenodd" clip-rule="evenodd" d="M115.975 177.615V0.00195312H87.1026L87.1026 177.615H29.3571V206.448H87.1026L87.1026 317.166H29.3571L29.3571 247.967H0.484375L0.484379 317.166V345.999V346H29.3571V345.999H87.1026V346H115.975L115.975 345.999V317.166L115.975 206.448V177.615Z" fill="black"/>
<path fill-rule="evenodd" clip-rule="evenodd" d="M919.714 177.615V0.00195312H890.841L890.841 177.615H833.095V206.448H890.841L890.841 317.166H833.095L833.095 247.967H804.223L804.223 317.166V345.999V346H833.095V345.999H890.841V346H919.714L919.714 345.999V317.166L919.714 206.448V177.615Z" fill="black"/>
<path fill-rule="evenodd" clip-rule="evenodd" d="M212.965 206.446V345.998H241.838L241.838 206.446H275.33V177.613H241.838L241.838 28.8359H299.583L299.583 345.998H328.456L328.456 28.8359V0.00276756V0H299.583V0.00276756H241.838V0H212.965L212.965 0.00276756V28.8359L212.965 177.613V206.446Z" fill="black"/>
<path fill-rule="evenodd" clip-rule="evenodd" d="M425.449 345.998L425.449 0H454.322V0.00276756H512.067V0H540.94V0.00276756V28.8359L540.94 345.998H512.067L512.067 28.8359H454.322L454.322 345.998H425.449Z" fill="black"/>
</svg>
