<svg width="223" height="150" viewBox="0 0 223 150" fill="none" xmlns="http://www.w3.org/2000/svg">
<path d="M0 148.34V131.784C0.113395 128.042 1.60643 124.961 4.4791 122.542C7.20058 120.161 10.3567 119.008 13.9476 119.084C17.5006 119.084 20.7324 120.236 23.6429 122.542C26.8179 124.999 28.4055 128.061 28.4055 131.727V148.34H25.9675V131.784C25.9675 128.873 24.6823 126.417 22.112 124.413C19.6929 122.485 16.9715 121.522 13.9476 121.522C10.9993 121.446 8.37233 122.391 6.06664 124.356C3.72314 126.36 2.51359 128.873 2.43799 131.897V148.34H0Z" fill="#017FFF"/>
<path d="M67.113 135.356H51.4078C51.7102 137.888 52.7686 140.156 54.5829 142.16C56.7374 144.579 59.2321 145.826 62.067 145.902H78.9628V148.34H62.1236C58.5328 148.264 55.4144 146.733 52.7686 143.747C50.1983 140.95 48.9131 137.756 48.9131 134.165C48.9131 130.574 50.1605 127.361 52.6552 124.527C55.301 121.578 58.4383 120.066 62.067 119.991H78.8494V122.429H62.0103C59.0998 122.504 56.6051 123.752 54.5262 126.171C52.7497 128.136 51.7102 130.385 51.4078 132.918H67.113V135.356Z" fill="#017FFF"/>
<path d="M127.018 119.991V136.603C126.905 140.307 125.412 143.369 122.539 145.788C119.818 148.169 116.662 149.322 113.071 149.247C109.48 149.247 106.248 148.113 103.376 145.845C100.2 143.312 98.6129 140.232 98.6129 136.603V119.991H101.051V136.546C101.051 139.457 102.336 141.914 104.906 143.917C107.325 145.845 110.047 146.809 113.071 146.809C116.019 146.884 118.646 145.939 120.952 143.974C123.295 141.971 124.505 139.457 124.58 136.433V119.991H127.018Z" fill="#017FFF"/>
<path d="M165.611 132.918C167.501 132.918 168.975 132.332 170.034 131.16C170.979 130.064 171.413 128.93 171.338 127.758C171.338 126.549 170.884 125.434 169.977 124.413C168.767 123.09 167.029 122.429 164.761 122.429H149.056V132.918H165.611ZM164.817 119.991C167.804 120.029 170.109 120.955 171.735 122.769C173.095 124.243 173.776 125.906 173.776 127.758C173.851 129.573 173.209 131.236 171.848 132.748C171.281 133.39 170.638 133.901 169.92 134.279C170.449 134.581 171.035 135.053 171.678 135.696C172.963 137.17 173.643 138.833 173.719 140.685V143.747C173.719 144.049 173.719 144.541 173.719 145.221C173.757 145.902 173.776 146.431 173.776 146.809V148.34H171.338V146.809C171.338 146.431 171.319 145.902 171.281 145.221C171.281 144.541 171.281 144.049 171.281 143.747V140.742C171.205 139.457 170.733 138.323 169.864 137.34C168.73 136.055 166.991 135.394 164.647 135.356H149.056V148.34H146.618V119.991H164.817Z" fill="#017FFF"/>
<path d="M193.403 148.34V131.784C193.516 128.042 195.047 124.942 197.995 122.485C200.792 120.142 203.986 119.008 207.577 119.084C211.168 119.084 214.362 120.236 217.159 122.542C220.258 124.999 221.808 128.061 221.808 131.727V148.34H219.37V131.784C219.37 128.873 218.123 126.417 215.628 124.413C213.285 122.485 210.601 121.522 207.577 121.522C204.629 121.446 201.964 122.391 199.583 124.356C197.126 126.435 195.879 128.949 195.841 131.897V148.34H193.403ZM206.67 133.315C206.935 133.05 207.237 132.918 207.577 132.918C207.917 132.918 208.201 133.05 208.428 133.315C208.654 133.541 208.768 133.825 208.768 134.165C208.768 134.505 208.654 134.789 208.428 135.016C208.201 135.242 207.917 135.356 207.577 135.356C207.237 135.356 206.935 135.242 206.67 135.016C206.443 134.789 206.33 134.505 206.33 134.165C206.33 133.825 206.443 133.541 206.67 133.315Z" fill="#017FFF"/>
<circle cx="207.522" cy="134.167" r="2.15501" fill="#017FFF"/>
<line x1="9.21517e-08" y1="47.11" x2="222.553" y2="47.11" stroke="#017FFF" stroke-width="2.10819"/>
<path d="M14.3594 58.933V48.1644C14.3594 32.0113 26.9229 1.5 61.0237 1.5C96.9194 1.5 107.477 30.2165 111.278 46.3696C115.078 62.5226 129.225 93.0339 161.532 93.0339C197.427 93.0339 208.196 55.3435 208.196 46.3696V37.3957" stroke="#017FFF" stroke-width="2.10819"/>
<circle cx="14.3588" cy="76.8764" r="6.12504" stroke="#017FFF" stroke-width="2.10819"/>
<circle cx="208.199" cy="19.4531" r="7.17913" fill="#017FFF"/>
</svg>
