<svg width="25" height="22" viewBox="0 0 25 22" fill="none" xmlns="http://www.w3.org/2000/svg">
<path d="M22.5 5.01452L19.9002 6.93292C19.9002 12 20.0869 16.4373 13 20C9.3253 21.6443 5 21 1.5 19.5C4.47462 18.4604 5 18.5 7.56238 17.0731C5.46213 17.0731 4.31239 15.4184 3 13.5C4.5 13.5 4.93718 12.6882 4.93718 12.6882C2.83735 12.4141 1.52496 9.67358 1 8.02924C2.5 8.5 3.36403 8.57735 3.36403 8.57735C1.5 7 1.52668 4.19246 2.05164 2.00002C6.24999 6.3849 9.66221 9.39953 11.5009 7.75518C12.0258 2.27406 14.5254 2 15.6992 2C17.0116 2 18.2126 2.45189 19 3C19.7874 3.54811 20.9488 3.09622 21.7375 2.54801C21.2131 3.64054 20.4293 4.46081 19.9056 5.00882L19.9002 5.01452H22.5Z" stroke="black"/>
</svg>
